<mxfile host="Electron" modified="2023-06-27T15:55:51.473Z" agent="Mozilla/5.0 (Windows NT 10.0; Win64; x64) AppleWebKit/537.36 (KHTML, like Gecko) draw.io/21.5.0 Chrome/112.0.5615.204 Electron/24.5.1 Safari/537.36" etag="Y7cEPR47KjsiaEfbOJUI" version="21.5.0" type="device">
  <diagram name="PÃ¡gina-1" id="A6a9aWBGfcl4taLg9pTd">
    <mxGraphModel dx="2830" dy="2447" grid="1" gridSize="10" guides="1" tooltips="1" connect="1" arrows="1" fold="1" page="1" pageScale="1" pageWidth="827" pageHeight="1169" math="0" shadow="0">
      <root>
        <mxCell id="0" />
        <mxCell id="1" parent="0" />
        <mxCell id="FiI6EAhYyxJKJ_xIPwKA-48" style="edgeStyle=orthogonalEdgeStyle;rounded=0;orthogonalLoop=1;jettySize=auto;html=1;" edge="1" parent="1" source="FiI6EAhYyxJKJ_xIPwKA-1" target="FiI6EAhYyxJKJ_xIPwKA-25">
          <mxGeometry relative="1" as="geometry" />
        </mxCell>
        <mxCell id="FiI6EAhYyxJKJ_xIPwKA-1" value="Cliente" style="swimlane;fontStyle=1;align=center;verticalAlign=top;childLayout=stackLayout;horizontal=1;startSize=26;horizontalStack=0;resizeParent=1;resizeParentMax=0;resizeLast=0;collapsible=1;marginBottom=0;whiteSpace=wrap;html=1;" vertex="1" parent="1">
          <mxGeometry x="300" y="-310" width="430" height="130" as="geometry" />
        </mxCell>
        <mxCell id="FiI6EAhYyxJKJ_xIPwKA-2" value="- nombre: String&lt;br&gt;- direccion: String" style="text;strokeColor=none;fillColor=none;align=left;verticalAlign=top;spacingLeft=4;spacingRight=4;overflow=hidden;rotatable=0;points=[[0,0.5],[1,0.5]];portConstraint=eastwest;whiteSpace=wrap;html=1;" vertex="1" parent="FiI6EAhYyxJKJ_xIPwKA-1">
          <mxGeometry y="26" width="430" height="34" as="geometry" />
        </mxCell>
        <mxCell id="FiI6EAhYyxJKJ_xIPwKA-3" value="" style="line;strokeWidth=1;fillColor=none;align=left;verticalAlign=middle;spacingTop=-1;spacingLeft=3;spacingRight=3;rotatable=0;labelPosition=right;points=[];portConstraint=eastwest;strokeColor=inherit;" vertex="1" parent="FiI6EAhYyxJKJ_xIPwKA-1">
          <mxGeometry y="60" width="430" height="8" as="geometry" />
        </mxCell>
        <mxCell id="FiI6EAhYyxJKJ_xIPwKA-4" value="+&amp;lt;&amp;lt;create&amp;gt;&amp;gt;Cliente(nombre:String, direccion:String):Cliente&lt;br&gt;+ agregarContratoUnico(servicio:Servicio, fecha Date):UnicaVez&lt;br&gt;+ agregarContratoProlongado(servicio Servicio, cantDias:Integer):prologado&lt;br&gt;+ calcularGastos():Real" style="text;strokeColor=none;fillColor=none;align=left;verticalAlign=top;spacingLeft=4;spacingRight=4;overflow=hidden;rotatable=0;points=[[0,0.5],[1,0.5]];portConstraint=eastwest;whiteSpace=wrap;html=1;" vertex="1" parent="FiI6EAhYyxJKJ_xIPwKA-1">
          <mxGeometry y="68" width="430" height="62" as="geometry" />
        </mxCell>
        <mxCell id="FiI6EAhYyxJKJ_xIPwKA-29" style="edgeStyle=orthogonalEdgeStyle;rounded=0;orthogonalLoop=1;jettySize=auto;html=1;" edge="1" parent="1" source="FiI6EAhYyxJKJ_xIPwKA-5" target="FiI6EAhYyxJKJ_xIPwKA-2">
          <mxGeometry relative="1" as="geometry" />
        </mxCell>
        <mxCell id="FiI6EAhYyxJKJ_xIPwKA-50" style="edgeStyle=orthogonalEdgeStyle;rounded=0;orthogonalLoop=1;jettySize=auto;html=1;" edge="1" parent="1" source="FiI6EAhYyxJKJ_xIPwKA-5" target="FiI6EAhYyxJKJ_xIPwKA-10">
          <mxGeometry relative="1" as="geometry">
            <Array as="points">
              <mxPoint x="20" y="345" />
            </Array>
          </mxGeometry>
        </mxCell>
        <mxCell id="FiI6EAhYyxJKJ_xIPwKA-5" value="Sistema" style="swimlane;fontStyle=1;align=center;verticalAlign=top;childLayout=stackLayout;horizontal=1;startSize=26;horizontalStack=0;resizeParent=1;resizeParentMax=0;resizeLast=0;collapsible=1;marginBottom=0;whiteSpace=wrap;html=1;" vertex="1" parent="1">
          <mxGeometry x="-90" y="-189" width="300" height="64" as="geometry" />
        </mxCell>
        <mxCell id="FiI6EAhYyxJKJ_xIPwKA-7" value="" style="line;strokeWidth=1;fillColor=none;align=left;verticalAlign=middle;spacingTop=-1;spacingLeft=3;spacingRight=3;rotatable=0;labelPosition=right;points=[];portConstraint=eastwest;strokeColor=inherit;" vertex="1" parent="FiI6EAhYyxJKJ_xIPwKA-5">
          <mxGeometry y="26" width="300" height="8" as="geometry" />
        </mxCell>
        <mxCell id="FiI6EAhYyxJKJ_xIPwKA-8" value="+ cantServiciosConMontoMayor(monto:Real): Integer" style="text;strokeColor=none;fillColor=none;align=left;verticalAlign=top;spacingLeft=4;spacingRight=4;overflow=hidden;rotatable=0;points=[[0,0.5],[1,0.5]];portConstraint=eastwest;whiteSpace=wrap;html=1;" vertex="1" parent="FiI6EAhYyxJKJ_xIPwKA-5">
          <mxGeometry y="34" width="300" height="30" as="geometry" />
        </mxCell>
        <mxCell id="FiI6EAhYyxJKJ_xIPwKA-10" value="&amp;lt;&amp;lt;abstract&amp;gt;&amp;gt;&lt;br&gt;Servicio" style="swimlane;fontStyle=1;align=center;verticalAlign=top;childLayout=stackLayout;horizontal=1;startSize=40;horizontalStack=0;resizeParent=1;resizeParentMax=0;resizeLast=0;collapsible=1;marginBottom=0;whiteSpace=wrap;html=1;" vertex="1" parent="1">
          <mxGeometry x="290" y="280" width="250" height="130" as="geometry" />
        </mxCell>
        <mxCell id="FiI6EAhYyxJKJ_xIPwKA-11" value="- precioHora: Real&lt;br&gt;- cantHoras: Integer" style="text;strokeColor=none;fillColor=none;align=left;verticalAlign=top;spacingLeft=4;spacingRight=4;overflow=hidden;rotatable=0;points=[[0,0.5],[1,0.5]];portConstraint=eastwest;whiteSpace=wrap;html=1;" vertex="1" parent="FiI6EAhYyxJKJ_xIPwKA-10">
          <mxGeometry y="40" width="250" height="40" as="geometry" />
        </mxCell>
        <mxCell id="FiI6EAhYyxJKJ_xIPwKA-12" value="" style="line;strokeWidth=1;fillColor=none;align=left;verticalAlign=middle;spacingTop=-1;spacingLeft=3;spacingRight=3;rotatable=0;labelPosition=right;points=[];portConstraint=eastwest;strokeColor=inherit;" vertex="1" parent="FiI6EAhYyxJKJ_xIPwKA-10">
          <mxGeometry y="80" width="250" height="8" as="geometry" />
        </mxCell>
        <mxCell id="FiI6EAhYyxJKJ_xIPwKA-13" value="+ monto():Real&lt;br&gt;+ &amp;lt;&amp;lt;abstract&amp;gt;&amp;gt; calcularMontoAbonar(): Real" style="text;strokeColor=none;fillColor=none;align=left;verticalAlign=top;spacingLeft=4;spacingRight=4;overflow=hidden;rotatable=0;points=[[0,0.5],[1,0.5]];portConstraint=eastwest;whiteSpace=wrap;html=1;" vertex="1" parent="FiI6EAhYyxJKJ_xIPwKA-10">
          <mxGeometry y="88" width="250" height="42" as="geometry" />
        </mxCell>
        <mxCell id="FiI6EAhYyxJKJ_xIPwKA-22" style="rounded=0;orthogonalLoop=1;jettySize=auto;html=1;endArrow=block;endFill=0;" edge="1" parent="1" source="FiI6EAhYyxJKJ_xIPwKA-14" target="FiI6EAhYyxJKJ_xIPwKA-10">
          <mxGeometry relative="1" as="geometry" />
        </mxCell>
        <mxCell id="FiI6EAhYyxJKJ_xIPwKA-14" value="Limpieza" style="swimlane;fontStyle=1;align=center;verticalAlign=top;childLayout=stackLayout;horizontal=1;startSize=26;horizontalStack=0;resizeParent=1;resizeParentMax=0;resizeLast=0;collapsible=1;marginBottom=0;whiteSpace=wrap;html=1;" vertex="1" parent="1">
          <mxGeometry x="160" y="480" width="240" height="140" as="geometry" />
        </mxCell>
        <mxCell id="FiI6EAhYyxJKJ_xIPwKA-15" value="- tarifaMinima: Real" style="text;strokeColor=none;fillColor=none;align=left;verticalAlign=top;spacingLeft=4;spacingRight=4;overflow=hidden;rotatable=0;points=[[0,0.5],[1,0.5]];portConstraint=eastwest;whiteSpace=wrap;html=1;" vertex="1" parent="FiI6EAhYyxJKJ_xIPwKA-14">
          <mxGeometry y="26" width="240" height="26" as="geometry" />
        </mxCell>
        <mxCell id="FiI6EAhYyxJKJ_xIPwKA-16" value="" style="line;strokeWidth=1;fillColor=none;align=left;verticalAlign=middle;spacingTop=-1;spacingLeft=3;spacingRight=3;rotatable=0;labelPosition=right;points=[];portConstraint=eastwest;strokeColor=inherit;" vertex="1" parent="FiI6EAhYyxJKJ_xIPwKA-14">
          <mxGeometry y="52" width="240" height="8" as="geometry" />
        </mxCell>
        <mxCell id="FiI6EAhYyxJKJ_xIPwKA-17" value="+ &amp;lt;&amp;lt;create&amp;gt;&amp;gt;Limpieza(precioHora:Real, cantHoras:Integer, tarifaMinima: Real): Limpieza&lt;br&gt;+calcularMontoAbonar():Real" style="text;strokeColor=none;fillColor=none;align=left;verticalAlign=top;spacingLeft=4;spacingRight=4;overflow=hidden;rotatable=0;points=[[0,0.5],[1,0.5]];portConstraint=eastwest;whiteSpace=wrap;html=1;" vertex="1" parent="FiI6EAhYyxJKJ_xIPwKA-14">
          <mxGeometry y="60" width="240" height="80" as="geometry" />
        </mxCell>
        <mxCell id="FiI6EAhYyxJKJ_xIPwKA-23" style="rounded=0;orthogonalLoop=1;jettySize=auto;html=1;endArrow=block;endFill=0;" edge="1" parent="1" source="FiI6EAhYyxJKJ_xIPwKA-18" target="FiI6EAhYyxJKJ_xIPwKA-10">
          <mxGeometry relative="1" as="geometry" />
        </mxCell>
        <mxCell id="FiI6EAhYyxJKJ_xIPwKA-18" value="Parquizacion" style="swimlane;fontStyle=1;align=center;verticalAlign=top;childLayout=stackLayout;horizontal=1;startSize=26;horizontalStack=0;resizeParent=1;resizeParentMax=0;resizeLast=0;collapsible=1;marginBottom=0;whiteSpace=wrap;html=1;" vertex="1" parent="1">
          <mxGeometry x="480" y="480" width="250" height="140" as="geometry" />
        </mxCell>
        <mxCell id="FiI6EAhYyxJKJ_xIPwKA-19" value="- cantMaquinas: Integer&lt;br&gt;- costoMantenimiento: Real" style="text;strokeColor=none;fillColor=none;align=left;verticalAlign=top;spacingLeft=4;spacingRight=4;overflow=hidden;rotatable=0;points=[[0,0.5],[1,0.5]];portConstraint=eastwest;whiteSpace=wrap;html=1;" vertex="1" parent="FiI6EAhYyxJKJ_xIPwKA-18">
          <mxGeometry y="26" width="250" height="34" as="geometry" />
        </mxCell>
        <mxCell id="FiI6EAhYyxJKJ_xIPwKA-20" value="" style="line;strokeWidth=1;fillColor=none;align=left;verticalAlign=middle;spacingTop=-1;spacingLeft=3;spacingRight=3;rotatable=0;labelPosition=right;points=[];portConstraint=eastwest;strokeColor=inherit;" vertex="1" parent="FiI6EAhYyxJKJ_xIPwKA-18">
          <mxGeometry y="60" width="250" height="8" as="geometry" />
        </mxCell>
        <mxCell id="FiI6EAhYyxJKJ_xIPwKA-21" value="+&amp;lt;&amp;lt;create&amp;gt;&amp;gt; Parquizacion(precioHora: Real, cantHoras: Integer, cantMaquinas: Integer, costoMantenimiento: Real): Parquizacion&lt;br&gt;+calcularMontoAbonar():Real" style="text;strokeColor=none;fillColor=none;align=left;verticalAlign=top;spacingLeft=4;spacingRight=4;overflow=hidden;rotatable=0;points=[[0,0.5],[1,0.5]];portConstraint=eastwest;whiteSpace=wrap;html=1;" vertex="1" parent="FiI6EAhYyxJKJ_xIPwKA-18">
          <mxGeometry y="68" width="250" height="72" as="geometry" />
        </mxCell>
        <mxCell id="FiI6EAhYyxJKJ_xIPwKA-25" value="&amp;lt;&amp;lt;interface&amp;gt;&amp;gt;&lt;br&gt;Contrato" style="swimlane;fontStyle=1;align=center;verticalAlign=top;childLayout=stackLayout;horizontal=1;startSize=40;horizontalStack=0;resizeParent=1;resizeParentMax=0;resizeLast=0;collapsible=1;marginBottom=0;whiteSpace=wrap;html=1;" vertex="1" parent="1">
          <mxGeometry x="320" width="160" height="74" as="geometry" />
        </mxCell>
        <mxCell id="FiI6EAhYyxJKJ_xIPwKA-27" value="" style="line;strokeWidth=1;fillColor=none;align=left;verticalAlign=middle;spacingTop=-1;spacingLeft=3;spacingRight=3;rotatable=0;labelPosition=right;points=[];portConstraint=eastwest;strokeColor=inherit;" vertex="1" parent="FiI6EAhYyxJKJ_xIPwKA-25">
          <mxGeometry y="40" width="160" height="8" as="geometry" />
        </mxCell>
        <mxCell id="FiI6EAhYyxJKJ_xIPwKA-28" value="+ montoAPagar():Real" style="text;strokeColor=none;fillColor=none;align=left;verticalAlign=top;spacingLeft=4;spacingRight=4;overflow=hidden;rotatable=0;points=[[0,0.5],[1,0.5]];portConstraint=eastwest;whiteSpace=wrap;html=1;" vertex="1" parent="FiI6EAhYyxJKJ_xIPwKA-25">
          <mxGeometry y="48" width="160" height="26" as="geometry" />
        </mxCell>
        <mxCell id="FiI6EAhYyxJKJ_xIPwKA-30" value="0..*&lt;br&gt;- clientes" style="text;html=1;align=center;verticalAlign=middle;resizable=0;points=[];autosize=1;strokeColor=none;fillColor=none;" vertex="1" parent="1">
          <mxGeometry x="80" y="-300" width="70" height="40" as="geometry" />
        </mxCell>
        <mxCell id="FiI6EAhYyxJKJ_xIPwKA-41" style="rounded=0;orthogonalLoop=1;jettySize=auto;html=1;" edge="1" parent="1" source="FiI6EAhYyxJKJ_xIPwKA-31" target="FiI6EAhYyxJKJ_xIPwKA-10">
          <mxGeometry relative="1" as="geometry" />
        </mxCell>
        <mxCell id="FiI6EAhYyxJKJ_xIPwKA-45" style="rounded=0;orthogonalLoop=1;jettySize=auto;html=1;endArrow=classicThin;endFill=0;dashed=1;" edge="1" parent="1" source="FiI6EAhYyxJKJ_xIPwKA-31" target="FiI6EAhYyxJKJ_xIPwKA-25">
          <mxGeometry relative="1" as="geometry" />
        </mxCell>
        <mxCell id="FiI6EAhYyxJKJ_xIPwKA-31" value="UnicaVez" style="swimlane;fontStyle=1;align=center;verticalAlign=top;childLayout=stackLayout;horizontal=1;startSize=26;horizontalStack=0;resizeParent=1;resizeParentMax=0;resizeLast=0;collapsible=1;marginBottom=0;whiteSpace=wrap;html=1;" vertex="1" parent="1">
          <mxGeometry x="80" y="80" width="160" height="60" as="geometry" />
        </mxCell>
        <mxCell id="FiI6EAhYyxJKJ_xIPwKA-33" value="" style="line;strokeWidth=1;fillColor=none;align=left;verticalAlign=middle;spacingTop=-1;spacingLeft=3;spacingRight=3;rotatable=0;labelPosition=right;points=[];portConstraint=eastwest;strokeColor=inherit;" vertex="1" parent="FiI6EAhYyxJKJ_xIPwKA-31">
          <mxGeometry y="26" width="160" height="8" as="geometry" />
        </mxCell>
        <mxCell id="FiI6EAhYyxJKJ_xIPwKA-34" value="+ montoAPagar():Real" style="text;strokeColor=none;fillColor=none;align=left;verticalAlign=top;spacingLeft=4;spacingRight=4;overflow=hidden;rotatable=0;points=[[0,0.5],[1,0.5]];portConstraint=eastwest;whiteSpace=wrap;html=1;" vertex="1" parent="FiI6EAhYyxJKJ_xIPwKA-31">
          <mxGeometry y="34" width="160" height="26" as="geometry" />
        </mxCell>
        <mxCell id="FiI6EAhYyxJKJ_xIPwKA-42" style="rounded=0;orthogonalLoop=1;jettySize=auto;html=1;" edge="1" parent="1" source="FiI6EAhYyxJKJ_xIPwKA-35" target="FiI6EAhYyxJKJ_xIPwKA-10">
          <mxGeometry relative="1" as="geometry" />
        </mxCell>
        <mxCell id="FiI6EAhYyxJKJ_xIPwKA-46" style="rounded=0;orthogonalLoop=1;jettySize=auto;html=1;endArrow=block;endFill=0;dashed=1;" edge="1" parent="1" source="FiI6EAhYyxJKJ_xIPwKA-35" target="FiI6EAhYyxJKJ_xIPwKA-25">
          <mxGeometry relative="1" as="geometry" />
        </mxCell>
        <mxCell id="FiI6EAhYyxJKJ_xIPwKA-35" value="Prolongado" style="swimlane;fontStyle=1;align=center;verticalAlign=top;childLayout=stackLayout;horizontal=1;startSize=26;horizontalStack=0;resizeParent=1;resizeParentMax=0;resizeLast=0;collapsible=1;marginBottom=0;whiteSpace=wrap;html=1;" vertex="1" parent="1">
          <mxGeometry x="560" y="80" width="300" height="100" as="geometry" />
        </mxCell>
        <mxCell id="FiI6EAhYyxJKJ_xIPwKA-36" value="- cantDias: Integer" style="text;strokeColor=none;fillColor=none;align=left;verticalAlign=top;spacingLeft=4;spacingRight=4;overflow=hidden;rotatable=0;points=[[0,0.5],[1,0.5]];portConstraint=eastwest;whiteSpace=wrap;html=1;" vertex="1" parent="FiI6EAhYyxJKJ_xIPwKA-35">
          <mxGeometry y="26" width="300" height="26" as="geometry" />
        </mxCell>
        <mxCell id="FiI6EAhYyxJKJ_xIPwKA-37" value="" style="line;strokeWidth=1;fillColor=none;align=left;verticalAlign=middle;spacingTop=-1;spacingLeft=3;spacingRight=3;rotatable=0;labelPosition=right;points=[];portConstraint=eastwest;strokeColor=inherit;" vertex="1" parent="FiI6EAhYyxJKJ_xIPwKA-35">
          <mxGeometry y="52" width="300" height="8" as="geometry" />
        </mxCell>
        <mxCell id="FiI6EAhYyxJKJ_xIPwKA-38" value="+&amp;lt;&amp;lt;create&amp;gt;&amp;gt;Prolongado(cantDias:Integer):Prolongado&lt;br&gt;+ montoAPagar():Real" style="text;strokeColor=none;fillColor=none;align=left;verticalAlign=top;spacingLeft=4;spacingRight=4;overflow=hidden;rotatable=0;points=[[0,0.5],[1,0.5]];portConstraint=eastwest;whiteSpace=wrap;html=1;" vertex="1" parent="FiI6EAhYyxJKJ_xIPwKA-35">
          <mxGeometry y="60" width="300" height="40" as="geometry" />
        </mxCell>
        <mxCell id="FiI6EAhYyxJKJ_xIPwKA-43" value="1&lt;br&gt;- servicio" style="text;html=1;align=center;verticalAlign=middle;resizable=0;points=[];autosize=1;strokeColor=none;fillColor=none;" vertex="1" parent="1">
          <mxGeometry x="565" y="223" width="70" height="40" as="geometry" />
        </mxCell>
        <mxCell id="FiI6EAhYyxJKJ_xIPwKA-44" value="1&lt;br&gt;- servicio" style="text;html=1;align=center;verticalAlign=middle;resizable=0;points=[];autosize=1;strokeColor=none;fillColor=none;" vertex="1" parent="1">
          <mxGeometry x="205" y="213" width="70" height="40" as="geometry" />
        </mxCell>
        <mxCell id="FiI6EAhYyxJKJ_xIPwKA-49" value="0..*&lt;br&gt;- contratos" style="text;html=1;align=center;verticalAlign=middle;resizable=0;points=[];autosize=1;strokeColor=none;fillColor=none;" vertex="1" parent="1">
          <mxGeometry x="400" y="-67" width="80" height="40" as="geometry" />
        </mxCell>
        <mxCell id="FiI6EAhYyxJKJ_xIPwKA-51" value="0..*&lt;br&gt;- servicios" style="text;html=1;align=center;verticalAlign=middle;resizable=0;points=[];autosize=1;strokeColor=none;fillColor=none;" vertex="1" parent="1">
          <mxGeometry x="-60" y="213" width="80" height="40" as="geometry" />
        </mxCell>
      </root>
    </mxGraphModel>
  </diagram>
</mxfile>
